<svg version="1" xmlns="http://www.w3.org/2000/svg" width="1096" height="1096" viewBox="0 0 822 822"><path d="M0 411v411h822V0H0v411zm579-262.1v17l41.3.3 41.2.3 5.6 2.6c7 3.3 12.7 8.9 15.9 15.4 3.3 6.9 3.4 18.9.4 25.6-4.6 10-14.4 17.4-24.5 18.6-2.7.3-4.8.9-4.6 1.2 3.4 6.2 5.2 11.6 5.5 17.1.5 7.9-.8 13-4.7 19.2-5 7.8-12.1 12.1-23.7 14.3l-3 .6 3 6c7.5 15.3.8 34.2-14.9 41.9-4.6 2.2-6.5 2.5-21.2 2.8l-16.3.4V513h19.7l22.9 32.7c12.6 18 23.1 33.1 23.2 33.5.2.4-14.5.8-32.7.8H579v63.6l29.3 27.6c16 15.2 30.1 28.5 31.1 29.7l1.9 2.1H358.1l-26.2-27.8c-14.4-15.2-27.2-28.7-28.6-29.9-2.4-2.3-2.9-2.3-27.4-2.3-13.7 0-24.9.4-24.9.9 0 .4 13.1 13.5 29 29 16 15.6 29 28.7 29 29.2s-5.1.9-11.2.9h-11.3l-31.3-29.6-31.2-29.5V388h58.9l24.2-30.1c13.3-16.5 24.5-29.7 24.9-29.2.4.4 10.5 20.6 22.4 44.8l21.6 44v16.6l-61.7 95.6c-34 52.6-62 96.1-62.1 96.5-.2.5 11.2.7 25.4.6l25.9-.3 54-82.2 54-82.3H427v33.4c0 29.9.2 34.1 1.9 39.5 4.8 15.5 15.8 25.8 32.8 30.8 5.2 1.5 13.7 1.8 81.1 2.1 41.3.1 75.2-.1 75.2-.5s-6.4-10-14.3-21.3l-14.3-20.5-53.9-.2c-40.1-.1-54.4-.5-56.1-1.4-5.1-2.7-5.2-3.6-5.9-60.4l-.7-53-14.6-30c-8-16.5-18.2-37.7-22.8-47-4.5-9.4-8.1-17.1-8-17.2.1-.1 1.9.2 4.1.8 2.4.5 38.7.9 89.3.9 94 0 88 .4 93.9-6.4 8.1-9.2 3.1-24.4-9-27.5-3.1-.7-20-1.1-53.3-1.1-48.7 0-48.8 0-51.1-2.2-3.3-3.1-3.2-9 .3-11.7 2.6-2.1 3.5-2.1 64.8-2.1 58.2 0 62.3-.2 66.1-1.9 6.9-3.2 10.5-8.6 10.5-15.8 0-5.3-3.5-11.8-7.8-14.5l-3.7-2.3-64.3-.5-64.4-.5-1.9-2.4c-1.9-2.3-2.5-6.5-1.3-9.6 1.8-4.5 1.9-4.5 80.4-4.5 82.4 0 78.4.3 83.7-6.7 2.7-3.6 4.1-11 2.9-15.7-1-4-6.3-9.3-10.9-11.1-3.8-1.4-15.2-1.5-113.2-1.2-101.7.3-109.4.4-115 2.1-19.4 5.8-34.5 18.2-43.3 35.5-5.1 9.9-7.3 18.4-7.5 28.6l-.2 8.3-15.5.4c-12.9.4-16.5.9-21.2 2.7-12 4.7-13.2 5.9-46.7 50.4L261.7 350H224V132h355v16.9z"/><path d="M310.1 154.1c-6.2 1.2-15.7 5.9-21.7 10.7-18.4 14.6-23.2 44.4-10.4 64.6 12.4 19.5 36.8 28.1 58.6 20.6 19.8-6.8 33.4-26 33.4-47 0-31.3-29-55-59.9-48.9z"/></svg>